# xmcd
#
# Track frame offsets: 
#        150
#        10125
#        18762
#        31350
#        43190
#        55957
#        67595
#        79425
#        89420
#        100415
#        110477
#        123385
#
# Disc length: 1803 seconds
#
# Revision: 0
# Processed by: cddbd v1.5PL3 Copyright (c) Steve Scherf et al.
# Submitted via: ExactAudioCopy v0.95a5
#
DISCID=9507090c
DTITLE=Various Artist - Country Oldies
DYEAR=2000
DGENRE=Country
TTITLE0=George Hamilton IV/Abilene
TTITLE1=Don Gibson/Sweet Dreams
TTITLE2=Bobby Bare/Detroit City
TTITLE3=Skeeter Davis/The End Of The World
TTITLE4=Connie Smith/The Hurtins' All Over
TTITLE5=Porter Wagoner/Misery Loves Company
TTITLE6=Hand Snow/Ninety Miles An Hour (Down A Dead End Street)
TTITLE7=Norma Jean/Go Cat Go
TTITLE8=Nat Stuckley/Cut Across Shorty
TTITLE9=Roger Miller/When Two Worlds Collide
TTITLE10=Jim Reeves/Distant Drums
TTITLE11=Eddy Arnold/Make The World Go Away
EXTD=
EXTT0=
EXTT1=
EXTT2=
EXTT3=
EXTT4=
EXTT5=
EXTT6=
EXTT7=
EXTT8=
EXTT9=
EXTT10=
EXTT11=
PLAYORDER=
